<svg width="208" height="208" viewBox="0 0 208 208" fill="none" xmlns="http://www.w3.org/2000/svg">
<path d="M3.71429 7.42857C5.76563 7.42857 7.42857 5.76563 7.42857 3.71429C7.42857 1.66294 5.76563 0 3.71429 0C1.66294 0 0 1.66294 0 3.71429C0 5.76563 1.66294 7.42857 3.71429 7.42857Z" fill="white" fill-opacity="0.25"/>
<path d="M26 7.42857C28.0513 7.42857 29.7143 5.76563 29.7143 3.71429C29.7143 1.66294 28.0513 0 26 0C23.9487 0 22.2857 1.66294 22.2857 3.71429C22.2857 5.76563 23.9487 7.42857 26 7.42857Z" fill="white" fill-opacity="0.25"/>
<path d="M52 3.71429C52 5.76563 50.3371 7.42857 48.2857 7.42857C46.2344 7.42857 44.5714 5.76563 44.5714 3.71429C44.5714 1.66294 46.2344 0 48.2857 0C50.3371 0 52 1.66294 52 3.71429Z" fill="white" fill-opacity="0.25"/>
<path d="M70.5714 7.42857C72.6228 7.42857 74.2857 5.76563 74.2857 3.71429C74.2857 1.66294 72.6228 0 70.5714 0C68.5201 0 66.8571 1.66294 66.8571 3.71429C66.8571 5.76563 68.5201 7.42857 70.5714 7.42857Z" fill="white" fill-opacity="0.25"/>
<path d="M96.5714 3.71429C96.5714 5.76563 94.9085 7.42857 92.8571 7.42857C90.8058 7.42857 89.1429 5.76563 89.1429 3.71429C89.1429 1.66294 90.8058 0 92.8571 0C94.9085 0 96.5714 1.66294 96.5714 3.71429Z" fill="white" fill-opacity="0.25"/>
<path d="M115.143 7.42857C117.194 7.42857 118.857 5.76563 118.857 3.71429C118.857 1.66294 117.194 0 115.143 0C113.092 0 111.429 1.66294 111.429 3.71429C111.429 5.76563 113.092 7.42857 115.143 7.42857Z" fill="white" fill-opacity="0.25"/>
<path d="M141.143 3.71429C141.143 5.76563 139.48 7.42857 137.429 7.42857C135.377 7.42857 133.714 5.76563 133.714 3.71429C133.714 1.66294 135.377 0 137.429 0C139.48 0 141.143 1.66294 141.143 3.71429Z" fill="white" fill-opacity="0.25"/>
<path d="M159.714 7.42857C161.766 7.42857 163.429 5.76563 163.429 3.71429C163.429 1.66294 161.766 0 159.714 0C157.663 0 156 1.66294 156 3.71429C156 5.76563 157.663 7.42857 159.714 7.42857Z" fill="white" fill-opacity="0.25"/>
<path d="M185.714 3.71429C185.714 5.76563 184.051 7.42857 182 7.42857C179.949 7.42857 178.286 5.76563 178.286 3.71429C178.286 1.66294 179.949 0 182 0C184.051 0 185.714 1.66294 185.714 3.71429Z" fill="white" fill-opacity="0.25"/>
<path d="M204.286 7.42857C206.337 7.42857 208 5.76563 208 3.71429C208 1.66294 206.337 0 204.286 0C202.234 0 200.571 1.66294 200.571 3.71429C200.571 5.76563 202.234 7.42857 204.286 7.42857Z" fill="white" fill-opacity="0.25"/>
<path d="M7.42857 26C7.42857 28.0513 5.76563 29.7143 3.71429 29.7143C1.66294 29.7143 0 28.0513 0 26C0 23.9487 1.66294 22.2857 3.71429 22.2857C5.76563 22.2857 7.42857 23.9487 7.42857 26Z" fill="white" fill-opacity="0.25"/>
<path d="M26 29.7143C28.0513 29.7143 29.7143 28.0513 29.7143 26C29.7143 23.9487 28.0513 22.2857 26 22.2857C23.9487 22.2857 22.2857 23.9487 22.2857 26C22.2857 28.0513 23.9487 29.7143 26 29.7143Z" fill="white" fill-opacity="0.25"/>
<path d="M52 26C52 28.0513 50.3371 29.7143 48.2857 29.7143C46.2344 29.7143 44.5714 28.0513 44.5714 26C44.5714 23.9487 46.2344 22.2857 48.2857 22.2857C50.3371 22.2857 52 23.9487 52 26Z" fill="white" fill-opacity="0.25"/>
<path d="M70.5714 29.7143C72.6228 29.7143 74.2857 28.0513 74.2857 26C74.2857 23.9487 72.6228 22.2857 70.5714 22.2857C68.5201 22.2857 66.8571 23.9487 66.8571 26C66.8571 28.0513 68.5201 29.7143 70.5714 29.7143Z" fill="white" fill-opacity="0.25"/>
<path d="M96.5714 26C96.5714 28.0513 94.9085 29.7143 92.8571 29.7143C90.8058 29.7143 89.1429 28.0513 89.1429 26C89.1429 23.9487 90.8058 22.2857 92.8571 22.2857C94.9085 22.2857 96.5714 23.9487 96.5714 26Z" fill="white" fill-opacity="0.25"/>
<path d="M115.143 29.7143C117.194 29.7143 118.857 28.0513 118.857 26C118.857 23.9487 117.194 22.2857 115.143 22.2857C113.092 22.2857 111.429 23.9487 111.429 26C111.429 28.0513 113.092 29.7143 115.143 29.7143Z" fill="white" fill-opacity="0.25"/>
<path d="M141.143 26C141.143 28.0513 139.48 29.7143 137.429 29.7143C135.377 29.7143 133.714 28.0513 133.714 26C133.714 23.9487 135.377 22.2857 137.429 22.2857C139.48 22.2857 141.143 23.9487 141.143 26Z" fill="white" fill-opacity="0.25"/>
<path d="M159.714 29.7143C161.766 29.7143 163.429 28.0513 163.429 26C163.429 23.9487 161.766 22.2857 159.714 22.2857C157.663 22.2857 156 23.9487 156 26C156 28.0513 157.663 29.7143 159.714 29.7143Z" fill="white" fill-opacity="0.25"/>
<path d="M185.714 26C185.714 28.0513 184.051 29.7143 182 29.7143C179.949 29.7143 178.286 28.0513 178.286 26C178.286 23.9487 179.949 22.2857 182 22.2857C184.051 22.2857 185.714 23.9487 185.714 26Z" fill="white" fill-opacity="0.25"/>
<path d="M204.286 29.7143C206.337 29.7143 208 28.0513 208 26C208 23.9487 206.337 22.2857 204.286 22.2857C202.234 22.2857 200.571 23.9487 200.571 26C200.571 28.0513 202.234 29.7143 204.286 29.7143Z" fill="white" fill-opacity="0.25"/>
<path d="M7.42857 48.2857C7.42857 50.3371 5.76563 52 3.71429 52C1.66294 52 0 50.3371 0 48.2857C0 46.2344 1.66294 44.5714 3.71429 44.5714C5.76563 44.5714 7.42857 46.2344 7.42857 48.2857Z" fill="white" fill-opacity="0.25"/>
<path d="M26 52C28.0513 52 29.7143 50.3371 29.7143 48.2857C29.7143 46.2344 28.0513 44.5714 26 44.5714C23.9487 44.5714 22.2857 46.2344 22.2857 48.2857C22.2857 50.3371 23.9487 52 26 52Z" fill="white" fill-opacity="0.25"/>
<path d="M52 48.2857C52 50.3371 50.3371 52 48.2857 52C46.2344 52 44.5714 50.3371 44.5714 48.2857C44.5714 46.2344 46.2344 44.5714 48.2857 44.5714C50.3371 44.5714 52 46.2344 52 48.2857Z" fill="white" fill-opacity="0.25"/>
<path d="M70.5714 52C72.6228 52 74.2857 50.3371 74.2857 48.2857C74.2857 46.2344 72.6228 44.5714 70.5714 44.5714C68.5201 44.5714 66.8571 46.2344 66.8571 48.2857C66.8571 50.3371 68.5201 52 70.5714 52Z" fill="white" fill-opacity="0.25"/>
<path d="M96.5714 48.2857C96.5714 50.3371 94.9085 52 92.8571 52C90.8058 52 89.1429 50.3371 89.1429 48.2857C89.1429 46.2344 90.8058 44.5714 92.8571 44.5714C94.9085 44.5714 96.5714 46.2344 96.5714 48.2857Z" fill="white" fill-opacity="0.25"/>
<path d="M115.143 52C117.194 52 118.857 50.3371 118.857 48.2857C118.857 46.2344 117.194 44.5714 115.143 44.5714C113.092 44.5714 111.429 46.2344 111.429 48.2857C111.429 50.3371 113.092 52 115.143 52Z" fill="white" fill-opacity="0.25"/>
<path d="M141.143 48.2857C141.143 50.3371 139.48 52 137.429 52C135.377 52 133.714 50.3371 133.714 48.2857C133.714 46.2344 135.377 44.5714 137.429 44.5714C139.48 44.5714 141.143 46.2344 141.143 48.2857Z" fill="white" fill-opacity="0.25"/>
<path d="M159.714 52C161.766 52 163.429 50.3371 163.429 48.2857C163.429 46.2344 161.766 44.5714 159.714 44.5714C157.663 44.5714 156 46.2344 156 48.2857C156 50.3371 157.663 52 159.714 52Z" fill="white" fill-opacity="0.25"/>
<path d="M185.714 48.2857C185.714 50.3371 184.051 52 182 52C179.949 52 178.286 50.3371 178.286 48.2857C178.286 46.2344 179.949 44.5714 182 44.5714C184.051 44.5714 185.714 46.2344 185.714 48.2857Z" fill="white" fill-opacity="0.25"/>
<path d="M204.286 52C206.337 52 208 50.3371 208 48.2857C208 46.2344 206.337 44.5714 204.286 44.5714C202.234 44.5714 200.571 46.2344 200.571 48.2857C200.571 50.3371 202.234 52 204.286 52Z" fill="white" fill-opacity="0.25"/>
<path d="M7.42857 70.5714C7.42857 72.6228 5.76563 74.2857 3.71429 74.2857C1.66294 74.2857 0 72.6228 0 70.5714C0 68.5201 1.66294 66.8571 3.71429 66.8571C5.76563 66.8571 7.42857 68.5201 7.42857 70.5714Z" fill="white" fill-opacity="0.25"/>
<path d="M26 74.2857C28.0513 74.2857 29.7143 72.6228 29.7143 70.5714C29.7143 68.5201 28.0513 66.8571 26 66.8571C23.9487 66.8571 22.2857 68.5201 22.2857 70.5714C22.2857 72.6228 23.9487 74.2857 26 74.2857Z" fill="white" fill-opacity="0.25"/>
<path d="M52 70.5714C52 72.6228 50.3371 74.2857 48.2857 74.2857C46.2344 74.2857 44.5714 72.6228 44.5714 70.5714C44.5714 68.5201 46.2344 66.8571 48.2857 66.8571C50.3371 66.8571 52 68.5201 52 70.5714Z" fill="white" fill-opacity="0.25"/>
<path d="M70.5714 74.2857C72.6228 74.2857 74.2857 72.6228 74.2857 70.5714C74.2857 68.5201 72.6228 66.8571 70.5714 66.8571C68.5201 66.8571 66.8571 68.5201 66.8571 70.5714C66.8571 72.6228 68.5201 74.2857 70.5714 74.2857Z" fill="white" fill-opacity="0.25"/>
<path d="M96.5714 70.5714C96.5714 72.6228 94.9085 74.2857 92.8571 74.2857C90.8058 74.2857 89.1429 72.6228 89.1429 70.5714C89.1429 68.5201 90.8058 66.8571 92.8571 66.8571C94.9085 66.8571 96.5714 68.5201 96.5714 70.5714Z" fill="white" fill-opacity="0.25"/>
<path d="M115.143 74.2857C117.194 74.2857 118.857 72.6228 118.857 70.5714C118.857 68.5201 117.194 66.8571 115.143 66.8571C113.092 66.8571 111.429 68.5201 111.429 70.5714C111.429 72.6228 113.092 74.2857 115.143 74.2857Z" fill="white" fill-opacity="0.25"/>
<path d="M141.143 70.5714C141.143 72.6228 139.48 74.2857 137.429 74.2857C135.377 74.2857 133.714 72.6228 133.714 70.5714C133.714 68.5201 135.377 66.8571 137.429 66.8571C139.48 66.8571 141.143 68.5201 141.143 70.5714Z" fill="white" fill-opacity="0.25"/>
<path d="M159.714 74.2857C161.766 74.2857 163.429 72.6228 163.429 70.5714C163.429 68.5201 161.766 66.8571 159.714 66.8571C157.663 66.8571 156 68.5201 156 70.5714C156 72.6228 157.663 74.2857 159.714 74.2857Z" fill="white" fill-opacity="0.25"/>
<path d="M185.714 70.5714C185.714 72.6228 184.051 74.2857 182 74.2857C179.949 74.2857 178.286 72.6228 178.286 70.5714C178.286 68.5201 179.949 66.8571 182 66.8571C184.051 66.8571 185.714 68.5201 185.714 70.5714Z" fill="white" fill-opacity="0.25"/>
<path d="M204.286 74.2857C206.337 74.2857 208 72.6228 208 70.5714C208 68.5201 206.337 66.8571 204.286 66.8571C202.234 66.8571 200.571 68.5201 200.571 70.5714C200.571 72.6228 202.234 74.2857 204.286 74.2857Z" fill="white" fill-opacity="0.25"/>
<path d="M7.42857 92.8571C7.42857 94.9085 5.76563 96.5714 3.71429 96.5714C1.66294 96.5714 0 94.9085 0 92.8571C0 90.8058 1.66294 89.1429 3.71429 89.1429C5.76563 89.1429 7.42857 90.8058 7.42857 92.8571Z" fill="white" fill-opacity="0.25"/>
<path d="M26 96.5714C28.0513 96.5714 29.7143 94.9085 29.7143 92.8571C29.7143 90.8058 28.0513 89.1429 26 89.1429C23.9487 89.1429 22.2857 90.8058 22.2857 92.8571C22.2857 94.9085 23.9487 96.5714 26 96.5714Z" fill="white" fill-opacity="0.25"/>
<path d="M52 92.8571C52 94.9085 50.3371 96.5714 48.2857 96.5714C46.2344 96.5714 44.5714 94.9085 44.5714 92.8571C44.5714 90.8058 46.2344 89.1429 48.2857 89.1429C50.3371 89.1429 52 90.8058 52 92.8571Z" fill="white" fill-opacity="0.25"/>
<path d="M70.5714 96.5714C72.6228 96.5714 74.2857 94.9085 74.2857 92.8571C74.2857 90.8058 72.6228 89.1429 70.5714 89.1429C68.5201 89.1429 66.8571 90.8058 66.8571 92.8571C66.8571 94.9085 68.5201 96.5714 70.5714 96.5714Z" fill="white" fill-opacity="0.25"/>
<path d="M96.5714 92.8571C96.5714 94.9085 94.9085 96.5714 92.8571 96.5714C90.8058 96.5714 89.1429 94.9085 89.1429 92.8571C89.1429 90.8058 90.8058 89.1429 92.8571 89.1429C94.9085 89.1429 96.5714 90.8058 96.5714 92.8571Z" fill="white" fill-opacity="0.25"/>
<path d="M115.143 96.5714C117.194 96.5714 118.857 94.9085 118.857 92.8571C118.857 90.8058 117.194 89.1429 115.143 89.1429C113.092 89.1429 111.429 90.8058 111.429 92.8571C111.429 94.9085 113.092 96.5714 115.143 96.5714Z" fill="white" fill-opacity="0.25"/>
<path d="M141.143 92.8571C141.143 94.9085 139.48 96.5714 137.429 96.5714C135.377 96.5714 133.714 94.9085 133.714 92.8571C133.714 90.8058 135.377 89.1429 137.429 89.1429C139.48 89.1429 141.143 90.8058 141.143 92.8571Z" fill="white" fill-opacity="0.25"/>
<path d="M159.714 96.5714C161.766 96.5714 163.429 94.9085 163.429 92.8571C163.429 90.8058 161.766 89.1429 159.714 89.1429C157.663 89.1429 156 90.8058 156 92.8571C156 94.9085 157.663 96.5714 159.714 96.5714Z" fill="white" fill-opacity="0.25"/>
<path d="M185.714 92.8571C185.714 94.9085 184.051 96.5714 182 96.5714C179.949 96.5714 178.286 94.9085 178.286 92.8571C178.286 90.8058 179.949 89.1429 182 89.1429C184.051 89.1429 185.714 90.8058 185.714 92.8571Z" fill="white" fill-opacity="0.25"/>
<path d="M204.286 96.5714C206.337 96.5714 208 94.9085 208 92.8571C208 90.8058 206.337 89.1429 204.286 89.1429C202.234 89.1429 200.571 90.8058 200.571 92.8571C200.571 94.9085 202.234 96.5714 204.286 96.5714Z" fill="white" fill-opacity="0.25"/>
<path d="M7.42857 115.143C7.42857 117.194 5.76563 118.857 3.71429 118.857C1.66294 118.857 0 117.194 0 115.143C0 113.092 1.66294 111.429 3.71429 111.429C5.76563 111.429 7.42857 113.092 7.42857 115.143Z" fill="white" fill-opacity="0.25"/>
<path d="M26 118.857C28.0513 118.857 29.7143 117.194 29.7143 115.143C29.7143 113.092 28.0513 111.429 26 111.429C23.9487 111.429 22.2857 113.092 22.2857 115.143C22.2857 117.194 23.9487 118.857 26 118.857Z" fill="white" fill-opacity="0.25"/>
<path d="M52 115.143C52 117.194 50.3371 118.857 48.2857 118.857C46.2344 118.857 44.5714 117.194 44.5714 115.143C44.5714 113.092 46.2344 111.429 48.2857 111.429C50.3371 111.429 52 113.092 52 115.143Z" fill="white" fill-opacity="0.25"/>
<path d="M70.5714 118.857C72.6228 118.857 74.2857 117.194 74.2857 115.143C74.2857 113.092 72.6228 111.429 70.5714 111.429C68.5201 111.429 66.8571 113.092 66.8571 115.143C66.8571 117.194 68.5201 118.857 70.5714 118.857Z" fill="white" fill-opacity="0.25"/>
<path d="M96.5714 115.143C96.5714 117.194 94.9085 118.857 92.8571 118.857C90.8058 118.857 89.1429 117.194 89.1429 115.143C89.1429 113.092 90.8058 111.429 92.8571 111.429C94.9085 111.429 96.5714 113.092 96.5714 115.143Z" fill="white" fill-opacity="0.25"/>
<path d="M115.143 118.857C117.194 118.857 118.857 117.194 118.857 115.143C118.857 113.092 117.194 111.429 115.143 111.429C113.092 111.429 111.429 113.092 111.429 115.143C111.429 117.194 113.092 118.857 115.143 118.857Z" fill="white" fill-opacity="0.25"/>
<path d="M141.143 115.143C141.143 117.194 139.48 118.857 137.429 118.857C135.377 118.857 133.714 117.194 133.714 115.143C133.714 113.092 135.377 111.429 137.429 111.429C139.48 111.429 141.143 113.092 141.143 115.143Z" fill="white" fill-opacity="0.25"/>
<path d="M159.714 118.857C161.766 118.857 163.429 117.194 163.429 115.143C163.429 113.092 161.766 111.429 159.714 111.429C157.663 111.429 156 113.092 156 115.143C156 117.194 157.663 118.857 159.714 118.857Z" fill="white" fill-opacity="0.25"/>
<path d="M185.714 115.143C185.714 117.194 184.051 118.857 182 118.857C179.949 118.857 178.286 117.194 178.286 115.143C178.286 113.092 179.949 111.429 182 111.429C184.051 111.429 185.714 113.092 185.714 115.143Z" fill="white" fill-opacity="0.25"/>
<path d="M204.286 118.857C206.337 118.857 208 117.194 208 115.143C208 113.092 206.337 111.429 204.286 111.429C202.234 111.429 200.571 113.092 200.571 115.143C200.571 117.194 202.234 118.857 204.286 118.857Z" fill="white" fill-opacity="0.25"/>
<path d="M7.42857 137.429C7.42857 139.48 5.76563 141.143 3.71429 141.143C1.66294 141.143 0 139.48 0 137.429C0 135.377 1.66294 133.714 3.71429 133.714C5.76563 133.714 7.42857 135.377 7.42857 137.429Z" fill="white" fill-opacity="0.25"/>
<path d="M26 141.143C28.0513 141.143 29.7143 139.48 29.7143 137.429C29.7143 135.377 28.0513 133.714 26 133.714C23.9487 133.714 22.2857 135.377 22.2857 137.429C22.2857 139.48 23.9487 141.143 26 141.143Z" fill="white" fill-opacity="0.25"/>
<path d="M52 137.429C52 139.48 50.3371 141.143 48.2857 141.143C46.2344 141.143 44.5714 139.48 44.5714 137.429C44.5714 135.377 46.2344 133.714 48.2857 133.714C50.3371 133.714 52 135.377 52 137.429Z" fill="white" fill-opacity="0.25"/>
<path d="M70.5714 141.143C72.6228 141.143 74.2857 139.48 74.2857 137.429C74.2857 135.377 72.6228 133.714 70.5714 133.714C68.5201 133.714 66.8571 135.377 66.8571 137.429C66.8571 139.48 68.5201 141.143 70.5714 141.143Z" fill="white" fill-opacity="0.25"/>
<path d="M96.5714 137.429C96.5714 139.48 94.9085 141.143 92.8571 141.143C90.8058 141.143 89.1429 139.48 89.1429 137.429C89.1429 135.377 90.8058 133.714 92.8571 133.714C94.9085 133.714 96.5714 135.377 96.5714 137.429Z" fill="white" fill-opacity="0.25"/>
<path d="M115.143 141.143C117.194 141.143 118.857 139.48 118.857 137.429C118.857 135.377 117.194 133.714 115.143 133.714C113.092 133.714 111.429 135.377 111.429 137.429C111.429 139.48 113.092 141.143 115.143 141.143Z" fill="white" fill-opacity="0.25"/>
<path d="M141.143 137.429C141.143 139.48 139.48 141.143 137.429 141.143C135.377 141.143 133.714 139.48 133.714 137.429C133.714 135.377 135.377 133.714 137.429 133.714C139.48 133.714 141.143 135.377 141.143 137.429Z" fill="white" fill-opacity="0.25"/>
<path d="M159.714 141.143C161.766 141.143 163.429 139.48 163.429 137.429C163.429 135.377 161.766 133.714 159.714 133.714C157.663 133.714 156 135.377 156 137.429C156 139.48 157.663 141.143 159.714 141.143Z" fill="white" fill-opacity="0.25"/>
<path d="M185.714 137.429C185.714 139.48 184.051 141.143 182 141.143C179.949 141.143 178.286 139.48 178.286 137.429C178.286 135.377 179.949 133.714 182 133.714C184.051 133.714 185.714 135.377 185.714 137.429Z" fill="white" fill-opacity="0.25"/>
<path d="M204.286 141.143C206.337 141.143 208 139.48 208 137.429C208 135.377 206.337 133.714 204.286 133.714C202.234 133.714 200.571 135.377 200.571 137.429C200.571 139.48 202.234 141.143 204.286 141.143Z" fill="white" fill-opacity="0.25"/>
<path d="M7.42857 159.714C7.42857 161.766 5.76563 163.429 3.71429 163.429C1.66294 163.429 0 161.766 0 159.714C0 157.663 1.66294 156 3.71429 156C5.76563 156 7.42857 157.663 7.42857 159.714Z" fill="white" fill-opacity="0.25"/>
<path d="M26 163.429C28.0513 163.429 29.7143 161.766 29.7143 159.714C29.7143 157.663 28.0513 156 26 156C23.9487 156 22.2857 157.663 22.2857 159.714C22.2857 161.766 23.9487 163.429 26 163.429Z" fill="white" fill-opacity="0.25"/>
<path d="M52 159.714C52 161.766 50.3371 163.429 48.2857 163.429C46.2344 163.429 44.5714 161.766 44.5714 159.714C44.5714 157.663 46.2344 156 48.2857 156C50.3371 156 52 157.663 52 159.714Z" fill="white" fill-opacity="0.25"/>
<path d="M70.5714 163.429C72.6228 163.429 74.2857 161.766 74.2857 159.714C74.2857 157.663 72.6228 156 70.5714 156C68.5201 156 66.8571 157.663 66.8571 159.714C66.8571 161.766 68.5201 163.429 70.5714 163.429Z" fill="white" fill-opacity="0.25"/>
<path d="M96.5714 159.714C96.5714 161.766 94.9085 163.429 92.8571 163.429C90.8058 163.429 89.1429 161.766 89.1429 159.714C89.1429 157.663 90.8058 156 92.8571 156C94.9085 156 96.5714 157.663 96.5714 159.714Z" fill="white" fill-opacity="0.25"/>
<path d="M115.143 163.429C117.194 163.429 118.857 161.766 118.857 159.714C118.857 157.663 117.194 156 115.143 156C113.092 156 111.429 157.663 111.429 159.714C111.429 161.766 113.092 163.429 115.143 163.429Z" fill="white" fill-opacity="0.25"/>
<path d="M141.143 159.714C141.143 161.766 139.48 163.429 137.429 163.429C135.377 163.429 133.714 161.766 133.714 159.714C133.714 157.663 135.377 156 137.429 156C139.48 156 141.143 157.663 141.143 159.714Z" fill="white" fill-opacity="0.25"/>
<path d="M159.714 163.429C161.766 163.429 163.429 161.766 163.429 159.714C163.429 157.663 161.766 156 159.714 156C157.663 156 156 157.663 156 159.714C156 161.766 157.663 163.429 159.714 163.429Z" fill="white" fill-opacity="0.25"/>
<path d="M185.714 159.714C185.714 161.766 184.051 163.429 182 163.429C179.949 163.429 178.286 161.766 178.286 159.714C178.286 157.663 179.949 156 182 156C184.051 156 185.714 157.663 185.714 159.714Z" fill="white" fill-opacity="0.25"/>
<path d="M204.286 163.429C206.337 163.429 208 161.766 208 159.714C208 157.663 206.337 156 204.286 156C202.234 156 200.571 157.663 200.571 159.714C200.571 161.766 202.234 163.429 204.286 163.429Z" fill="white" fill-opacity="0.25"/>
<path d="M7.42857 182C7.42857 184.051 5.76563 185.714 3.71429 185.714C1.66294 185.714 0 184.051 0 182C0 179.949 1.66294 178.286 3.71429 178.286C5.76563 178.286 7.42857 179.949 7.42857 182Z" fill="white" fill-opacity="0.25"/>
<path d="M26 185.714C28.0513 185.714 29.7143 184.051 29.7143 182C29.7143 179.949 28.0513 178.286 26 178.286C23.9487 178.286 22.2857 179.949 22.2857 182C22.2857 184.051 23.9487 185.714 26 185.714Z" fill="white" fill-opacity="0.25"/>
<path d="M52 182C52 184.051 50.3371 185.714 48.2857 185.714C46.2344 185.714 44.5714 184.051 44.5714 182C44.5714 179.949 46.2344 178.286 48.2857 178.286C50.3371 178.286 52 179.949 52 182Z" fill="white" fill-opacity="0.25"/>
<path d="M70.5714 185.714C72.6228 185.714 74.2857 184.051 74.2857 182C74.2857 179.949 72.6228 178.286 70.5714 178.286C68.5201 178.286 66.8571 179.949 66.8571 182C66.8571 184.051 68.5201 185.714 70.5714 185.714Z" fill="white" fill-opacity="0.25"/>
<path d="M96.5714 182C96.5714 184.051 94.9085 185.714 92.8571 185.714C90.8058 185.714 89.1429 184.051 89.1429 182C89.1429 179.949 90.8058 178.286 92.8571 178.286C94.9085 178.286 96.5714 179.949 96.5714 182Z" fill="white" fill-opacity="0.25"/>
<path d="M115.143 185.714C117.194 185.714 118.857 184.051 118.857 182C118.857 179.949 117.194 178.286 115.143 178.286C113.092 178.286 111.429 179.949 111.429 182C111.429 184.051 113.092 185.714 115.143 185.714Z" fill="white" fill-opacity="0.25"/>
<path d="M141.143 182C141.143 184.051 139.48 185.714 137.429 185.714C135.377 185.714 133.714 184.051 133.714 182C133.714 179.949 135.377 178.286 137.429 178.286C139.48 178.286 141.143 179.949 141.143 182Z" fill="white" fill-opacity="0.25"/>
<path d="M159.714 185.714C161.766 185.714 163.429 184.051 163.429 182C163.429 179.949 161.766 178.286 159.714 178.286C157.663 178.286 156 179.949 156 182C156 184.051 157.663 185.714 159.714 185.714Z" fill="white" fill-opacity="0.25"/>
<path d="M185.714 182C185.714 184.051 184.051 185.714 182 185.714C179.949 185.714 178.286 184.051 178.286 182C178.286 179.949 179.949 178.286 182 178.286C184.051 178.286 185.714 179.949 185.714 182Z" fill="white" fill-opacity="0.25"/>
<path d="M204.286 185.714C206.337 185.714 208 184.051 208 182C208 179.949 206.337 178.286 204.286 178.286C202.234 178.286 200.571 179.949 200.571 182C200.571 184.051 202.234 185.714 204.286 185.714Z" fill="white" fill-opacity="0.25"/>
<path d="M7.42857 204.286C7.42857 206.337 5.76563 208 3.71429 208C1.66294 208 0 206.337 0 204.286C0 202.234 1.66294 200.571 3.71429 200.571C5.76563 200.571 7.42857 202.234 7.42857 204.286Z" fill="white" fill-opacity="0.25"/>
<path d="M26 208C28.0513 208 29.7143 206.337 29.7143 204.286C29.7143 202.234 28.0513 200.571 26 200.571C23.9487 200.571 22.2857 202.234 22.2857 204.286C22.2857 206.337 23.9487 208 26 208Z" fill="white" fill-opacity="0.25"/>
<path d="M52 204.286C52 206.337 50.3371 208 48.2857 208C46.2344 208 44.5714 206.337 44.5714 204.286C44.5714 202.234 46.2344 200.571 48.2857 200.571C50.3371 200.571 52 202.234 52 204.286Z" fill="white" fill-opacity="0.25"/>
<path d="M70.5714 208C72.6228 208 74.2857 206.337 74.2857 204.286C74.2857 202.234 72.6228 200.571 70.5714 200.571C68.5201 200.571 66.8571 202.234 66.8571 204.286C66.8571 206.337 68.5201 208 70.5714 208Z" fill="white" fill-opacity="0.25"/>
<path d="M96.5714 204.286C96.5714 206.337 94.9085 208 92.8571 208C90.8058 208 89.1429 206.337 89.1429 204.286C89.1429 202.234 90.8058 200.571 92.8571 200.571C94.9085 200.571 96.5714 202.234 96.5714 204.286Z" fill="white" fill-opacity="0.25"/>
<path d="M115.143 208C117.194 208 118.857 206.337 118.857 204.286C118.857 202.234 117.194 200.571 115.143 200.571C113.092 200.571 111.429 202.234 111.429 204.286C111.429 206.337 113.092 208 115.143 208Z" fill="white" fill-opacity="0.25"/>
<path d="M141.143 204.286C141.143 206.337 139.48 208 137.429 208C135.377 208 133.714 206.337 133.714 204.286C133.714 202.234 135.377 200.571 137.429 200.571C139.48 200.571 141.143 202.234 141.143 204.286Z" fill="white" fill-opacity="0.25"/>
<path d="M159.714 208C161.766 208 163.429 206.337 163.429 204.286C163.429 202.234 161.766 200.571 159.714 200.571C157.663 200.571 156 202.234 156 204.286C156 206.337 157.663 208 159.714 208Z" fill="white" fill-opacity="0.25"/>
<path d="M185.714 204.286C185.714 206.337 184.051 208 182 208C179.949 208 178.286 206.337 178.286 204.286C178.286 202.234 179.949 200.571 182 200.571C184.051 200.571 185.714 202.234 185.714 204.286Z" fill="white" fill-opacity="0.25"/>
<path d="M204.286 208C206.337 208 208 206.337 208 204.286C208 202.234 206.337 200.571 204.286 200.571C202.234 200.571 200.571 202.234 200.571 204.286C200.571 206.337 202.234 208 204.286 208Z" fill="white" fill-opacity="0.25"/>
</svg>
